<svg xmlns="http://www.w3.org/2000/svg" viewBox="0 0 512 512">
  <defs>
    <linearGradient id="bg" x1="0%" y1="0%" x2="100%" y2="100%">
      <stop offset="0%" stop-color="#d63031" />
      <stop offset="100%" stop-color="#6c5ce7" />
    </linearGradient>
  </defs>
  <rect width="512" height="512" rx="128" fill="#0a0a0f" />
  <rect x="72" y="72" width="368" height="368" rx="92" fill="url(#bg)" />
  <path
    d="M166 185c0-18 15-33 33-33h114c18 0 33 15 33 33v78c0 18-15 33-33 33h-48l-53 48c-10 9-26 2-26-12v-36h-7c-18 0-33-15-33-33v-78z"
    fill="#fff"
  />
  <circle cx="220" cy="224" r="14" fill="#d63031" />
  <circle cx="256" cy="224" r="14" fill="#d63031" />
  <circle cx="292" cy="224" r="14" fill="#d63031" />
</svg>
